<svg width="23" height="35" viewBox="0 0 23 35" fill="none" xmlns="http://www.w3.org/2000/svg">
<path d="M3.19622 28.5194C2.84019 28.5381 2.56617 28.8413 2.58321 29.1977C2.60026 29.5544 2.90194 29.83 3.25829 29.8142H7.11904C7.29078 29.8149 7.45577 29.747 7.57767 29.6254C7.69925 29.5039 7.76775 29.3389 7.76775 29.1668C7.76775 28.9948 7.69924 28.8298 7.57767 28.7085C7.45577 28.5869 7.29078 28.5191 7.11904 28.5194H3.25829C3.23739 28.5184 3.2168 28.5184 3.19622 28.5194Z" fill="#4B4B4B"/>
<path d="M9.67597 28.5194C9.32122 28.5381 9.04817 28.8413 9.06521 29.1977C9.08226 29.554 9.38297 29.8294 9.73804 29.8139H11.0091C11.1805 29.8149 11.3455 29.747 11.4671 29.6254C11.589 29.5042 11.6572 29.3389 11.6572 29.1668C11.6572 28.9944 11.589 28.8291 11.4671 28.7079C11.3455 28.5863 11.1805 28.5184 11.0091 28.5194H9.73804C9.71745 28.5184 9.69687 28.5184 9.67597 28.5194Z" fill="#4B4B4B"/>
<path d="M3.88704 11.0529C3.86839 11.4089 3.56542 11.683 3.20874 11.6659C2.85207 11.6489 2.57644 11.3472 2.5922 10.9912V7.13041C2.59155 6.95835 2.65974 6.79335 2.78099 6.67178C2.90256 6.54989 3.06756 6.48138 3.23962 6.48138C3.41168 6.48138 3.57668 6.54989 3.69825 6.67178C3.81982 6.79336 3.88768 6.95835 3.88704 7.13041V10.9912C3.88801 11.0117 3.88801 11.0323 3.88704 11.0529Z" fill="#4B4B4B"/>
<path d="M3.88702 4.57405C3.86804 4.9288 3.56475 5.20185 3.20872 5.18481C2.85237 5.16776 2.57673 4.86705 2.59217 4.51198V3.2409C2.59121 3.06948 2.65907 2.90449 2.78064 2.78291C2.90222 2.66134 3.06721 2.59283 3.23959 2.59283C3.41198 2.59283 3.57697 2.66134 3.69854 2.78291C3.82012 2.90449 3.88766 3.06948 3.88702 3.2409V4.51198C3.88798 4.53256 3.88798 4.55347 3.88702 4.57405Z" fill="#4B4B4B"/>
<path d="M3.23904 0.00035554C1.45502 0.00035554 0 1.4557 0 3.23973V31.7571V31.7584V31.7632C0.000321681 31.7848 0.00192974 31.8063 0.00482429 31.8276C0.0424537 33.5791 1.47977 35 3.24 35H18.7914C20.5535 35 21.9966 33.5765 22.0316 31.8227C22.0345 31.8015 22.0361 31.7806 22.0368 31.7593V31.7581V31.7568V3.23937C22.0368 1.45502 20.5767 0 18.7926 0L3.23904 0.00035554ZM3.23904 1.29778H5.90718L7.21712 3.56874L7.21744 3.56906C7.33387 3.7675 7.54678 3.88939 7.77674 3.88907H14.2587C14.4893 3.88971 14.7028 3.76781 14.8196 3.56906L16.1295 1.29811H18.7903C19.8786 1.29811 20.7383 2.15134 20.7383 3.24005V31.1111H1.29581V3.24005C1.29581 2.15167 2.15037 1.29811 3.23875 1.29811L3.23904 1.29778ZM7.40855 1.29907H14.6324L13.8869 2.59164H8.15535L7.40855 1.29907ZM1.41006 32.4075H20.6195C20.405 33.119 19.6621 33.704 18.7905 33.704L3.23912 33.7037C2.37296 33.7037 1.63261 33.1106 1.41006 32.4072V32.4075Z" fill="#4B4B4B"/>
<path d="M3.19622 28.5194C2.84019 28.5381 2.56617 28.8413 2.58321 29.1977C2.60026 29.5544 2.90226 29.83 3.25829 29.8142H7.11904C7.29078 29.8149 7.45577 29.7467 7.57767 29.6254C7.69925 29.5039 7.76775 29.3389 7.76775 29.1668C7.76775 28.9948 7.69924 28.8298 7.57767 28.7082C7.45577 28.5869 7.29078 28.5188 7.11904 28.5194H3.25829C3.23771 28.5184 3.2168 28.5184 3.19622 28.5194Z" fill="#4B4B4B"/>
<path d="M9.67597 28.5194C9.3209 28.5384 9.04817 28.8417 9.06521 29.1977C9.08226 29.554 9.38297 29.8297 9.73772 29.8142H11.0088C11.1805 29.8152 11.3452 29.7473 11.4671 29.6258C11.5887 29.5042 11.6569 29.3392 11.6569 29.1668C11.6569 28.9948 11.5887 28.8294 11.4671 28.7079C11.3452 28.5863 11.1805 28.5188 11.0088 28.5194H9.73772C9.71714 28.5184 9.69655 28.5184 9.67597 28.5194Z" fill="#4B4B4B"/>
<g clip-path="url(#clip0_11_170)">
<path d="M11.5 22C10.0418 21.9984 8.64379 21.4184 7.61269 20.3873C6.58158 19.3562 6.0016 17.9582 6 16.5C6.0016 15.0418 6.58158 13.6438 7.61269 12.6127C8.64379 11.5816 10.0418 11.0016 11.5 11C12.293 11 13.0767 11.1715 13.7972 11.5027C14.5178 11.834 15.1582 12.3171 15.6745 12.919L11.7315 16.9175L10.3456 15.7009C10.2318 15.6088 10.0899 15.5586 9.94351 15.559C9.84694 15.5587 9.75155 15.5803 9.6645 15.6221C9.57745 15.6639 9.50099 15.7249 9.44081 15.8004C9.38775 15.8664 9.34832 15.9423 9.32481 16.0237C9.3013 16.1051 9.29417 16.1904 9.30384 16.2745C9.31299 16.3584 9.33872 16.4396 9.37951 16.5134C9.4203 16.5873 9.47534 16.6523 9.54145 16.7046L11.3779 18.2841C11.4918 18.3753 11.6335 18.4249 11.7794 18.4245C11.8639 18.4247 11.9477 18.4082 12.0258 18.3759C12.1039 18.3435 12.1747 18.2958 12.2342 18.2358L16.406 14.0108C16.7991 14.7815 17.0027 15.6348 17 16.5C16.9984 17.9582 16.4184 19.3562 15.3873 20.3873C14.3562 21.4184 12.9582 21.9984 11.5 22Z" fill="#4B4B4B"/>
</g>
<defs>
<clipPath id="clip0_11_170">
<rect width="11" height="11" fill="white" transform="translate(6 11)"/>
</clipPath>
</defs>
</svg>
