<svg width="361" height="288" viewBox="0 0 361 288" fill="none" xmlns="http://www.w3.org/2000/svg">
<circle cx="242.5" cy="134.5" r="108.5" stroke="#53F95F" stroke-width="20"/>
<circle cx="324.767" cy="55.1813" r="8.42456" transform="rotate(175.723 324.767 55.1813)" fill="url(#paint0_linear_25_397)"/>
<circle cx="136.646" cy="243.602" r="8.56398" transform="rotate(175.723 136.646 243.602)" fill="url(#paint1_linear_25_397)"/>
<circle cx="11.7211" cy="134.793" r="11.7211" fill="url(#paint2_linear_25_397)"/>
<circle cx="153.107" cy="7.32571" r="7.32571" fill="url(#paint3_linear_25_397)"/>
<g filter="url(#filter0_d_25_397)">
<path d="M196.678 196.22L70.8741 184.682C66.587 184.289 63.4303 180.495 63.8234 176.208L76.6828 36.0035C77.076 31.7164 80.8702 28.5597 85.1573 28.953L148.059 34.7222L183.542 37.9766L197.713 39.2764C199.903 39.4772 201.904 40.5926 203.228 42.3482L215.137 58.1555C216.303 59.7028 216.851 61.629 216.674 63.5583L215.167 79.9853L211.582 119.068L205.153 189.17C204.76 193.457 200.965 196.614 196.678 196.22Z" fill="#0194FF"/>
<path d="M187.847 64.3304L132.414 59.2461L132.001 63.7407L187.435 68.825L187.847 64.3304Z" fill="#E5F3FF"/>
<path d="M176.467 73.1065L131.521 68.9841L131.108 73.4787L176.054 77.6011L176.467 73.1065Z" fill="#E5F3FF"/>
<path d="M104.949 53.9573L102.452 53.7283C101.79 53.6675 101.13 53.8724 100.619 54.2977C100.108 54.7231 99.7866 55.334 99.7258 55.9963L98.3517 70.9783C98.2909 71.6406 98.4957 72.2999 98.9211 72.8111C99.3465 73.3223 99.9574 73.6436 100.62 73.7043L113.105 74.8495C113.767 74.9102 114.426 74.7054 114.937 74.28C115.449 73.8548 115.77 73.2437 115.831 72.5815L117.205 57.5994C117.266 56.9372 117.061 56.278 116.635 55.7667C116.21 55.2555 115.599 54.9342 114.937 54.8734L112.44 54.6444" stroke="white" stroke-width="2.05372" stroke-linecap="round" stroke-linejoin="round"/>
<path d="M104.948 53.9577C105.009 53.2955 105.33 52.6844 105.842 52.2592C106.353 51.8338 107.012 51.629 107.674 51.6897L110.171 51.9187C110.834 51.9795 111.445 52.3008 111.87 52.812C112.295 53.3233 112.5 53.9825 112.439 54.6447C112.379 55.307 112.057 55.918 111.546 56.3434C111.035 56.7686 110.376 56.9735 109.713 56.9127L107.216 56.6837C106.554 56.623 105.943 56.3016 105.518 55.7904C105.092 55.2792 104.888 54.6199 104.948 53.9577Z" stroke="white" stroke-width="2.05372" stroke-linecap="round" stroke-linejoin="round"/>
<path d="M107.34 68.9697L111.092 65.7697C111.557 65.3669 111.847 64.7998 111.904 64.1873C111.96 63.5748 111.777 62.9644 111.393 62.4837C111.206 62.2495 110.974 62.0554 110.71 61.9132C110.446 61.7711 110.156 61.6837 109.858 61.6563C109.559 61.6289 109.258 61.6621 108.973 61.7539C108.687 61.8457 108.424 61.9943 108.197 62.1905L107.947 62.4043L107.74 62.1474C107.553 61.9132 107.321 61.7192 107.057 61.5769C106.793 61.4348 106.503 61.3474 106.205 61.32C105.906 61.2926 105.605 61.3259 105.32 61.4176C105.034 61.5094 104.771 61.6579 104.544 61.8542C104.079 62.2569 103.788 62.8239 103.732 63.4366C103.675 64.0491 103.859 64.6597 104.243 65.1403L107.338 68.9809L107.34 68.9697Z" stroke="white" stroke-width="2.05372" stroke-linecap="round" stroke-linejoin="round"/>
<path d="M185.841 102.671L98.9458 94.7015C97.291 94.5497 95.8264 95.7682 95.6746 97.4231L93.8882 116.9C93.7365 118.555 94.955 120.019 96.6098 120.171L183.505 128.141C185.16 128.293 186.625 127.074 186.777 125.419L188.563 105.943C188.715 104.288 187.496 102.823 185.841 102.671Z" fill="#E5F3FF"/>
<path d="M182.956 134.134L96.0603 126.164C94.4054 126.012 92.9408 127.231 92.789 128.885L92.3081 134.129C92.1563 135.784 93.3748 137.249 95.0297 137.4L181.925 145.37C183.58 145.522 185.045 144.304 185.196 142.649L185.677 137.405C185.829 135.75 184.611 134.286 182.956 134.134Z" fill="#E5F3FF"/>
<path d="M132.677 155.207L93.724 151.634C92.0692 151.482 90.6046 152.701 90.4528 154.356L89.3733 166.125C89.2216 167.78 90.4401 169.245 92.0949 169.396L131.048 172.969C132.703 173.121 134.168 171.902 134.319 170.248L135.399 158.478C135.551 156.823 134.332 155.359 132.677 155.207Z" fill="#E5F3FF"/>
<path d="M180.62 159.604L143.624 156.21C141.969 156.059 140.505 157.277 140.353 158.932L140.137 161.29C139.985 162.945 141.204 164.409 142.858 164.561L179.854 167.954C181.509 168.106 182.973 166.888 183.125 165.233L183.341 162.875C183.493 161.22 182.274 159.755 180.62 159.604Z" fill="#E5F3FF"/>
<path d="M134.364 191.926L247.825 236.451C253.017 238.489 258.878 235.932 260.915 230.74L285.811 167.3L300.103 130.879L305.824 116.3C306.742 113.964 306.755 111.369 305.864 109.023L299.451 92.1507C298.439 89.4888 296.351 87.3777 293.7 86.3375L281.33 81.483L248.264 68.5071L191.533 46.2445C186.342 44.2071 180.481 46.7643 178.444 51.9561L128.652 178.837C126.615 184.028 129.172 189.889 134.364 191.926Z" fill="white"/>
<path d="M263.894 99.822L287.396 109.044" stroke="#0082FC" stroke-width="5.16946" stroke-linecap="square"/>
<path d="M222.899 104.077L186.47 89.7833C182.576 88.2553 178.181 90.1734 176.653 94.0674L165.126 123.445C163.598 127.339 165.516 131.734 169.41 133.262L205.838 147.556C209.732 149.084 214.128 147.166 215.656 143.272L227.183 113.894C228.711 110 226.793 105.605 222.899 104.077Z" fill="#0082FC"/>
<mask id="mask0_25_397" style="mask-type:luminance" maskUnits="userSpaceOnUse" x="183" y="105" width="27" height="27">
<path d="M209.244 112.958L190.442 105.58L183.065 124.382L201.866 131.76L209.244 112.958Z" fill="white"/>
</mask>
<g mask="url(#mask0_25_397)">
<path d="M201.659 113.711C200.184 113.132 198.646 113.201 197.366 113.854C196.872 112.505 195.791 111.408 194.315 110.829C193.029 110.327 191.597 110.355 190.331 110.907C189.066 111.459 188.072 112.49 187.566 113.775C185.481 119.088 191.587 126.382 191.847 126.69C191.948 126.81 192.078 126.902 192.224 126.96C192.369 127.017 192.527 127.037 192.683 127.018C193.083 126.969 202.52 125.773 204.605 120.461C205.108 119.175 205.08 117.742 204.528 116.477C203.975 115.212 202.944 114.217 201.659 113.711ZM197.154 124.009C195.79 124.475 194.39 124.827 192.968 125.061C192.085 123.923 191.298 122.712 190.616 121.443C189.56 119.453 188.481 116.627 189.328 114.466C189.649 113.648 190.282 112.991 191.088 112.64C191.893 112.288 192.805 112.271 193.623 112.592C194.931 113.105 195.754 114.225 195.773 115.515C195.775 115.703 195.834 115.886 195.941 116.041C196.048 116.196 196.198 116.315 196.373 116.384C196.548 116.452 196.74 116.467 196.924 116.427C197.107 116.386 197.275 116.292 197.404 116.156C198.295 115.222 199.661 114.961 200.968 115.474C201.786 115.795 202.443 116.428 202.795 117.233C203.146 118.039 203.163 118.951 202.842 119.769C201.994 121.93 199.281 123.268 197.154 124.009Z" fill="white"/>
</g>
<path d="M204.225 151.669L167.797 137.375C163.903 135.847 159.508 137.765 157.98 141.659L146.452 171.037C144.924 174.931 146.843 179.326 150.736 180.854L187.165 195.148C191.059 196.676 195.454 194.758 196.982 190.864L208.509 161.486C210.037 157.592 208.119 153.197 204.225 151.669Z" fill="#0082FC"/>
<path d="M279.305 126.209L242.877 111.915C238.983 110.387 234.587 112.305 233.059 116.199L221.532 145.577C220.004 149.471 221.922 153.866 225.816 155.394L262.244 169.688C266.138 171.216 270.534 169.298 272.062 165.404L283.589 136.026C285.117 132.132 283.199 127.737 279.305 126.209Z" fill="#0082FC"/>
<path d="M260.63 173.801L224.202 159.507C220.308 157.979 215.912 159.897 214.384 163.791L202.857 193.169C201.329 197.063 203.247 201.458 207.141 202.986L243.57 217.28C247.464 218.808 251.859 216.89 253.387 212.996L264.914 183.618C266.442 179.724 264.524 175.329 260.63 173.801Z" fill="#0082FC"/>
<mask id="mask1_25_397" style="mask-type:luminance" maskUnits="userSpaceOnUse" x="220" y="175" width="27" height="27">
<path d="M246.976 182.681L228.174 175.304L220.797 194.106L239.598 201.483L246.976 182.681Z" fill="white"/>
</mask>
<g mask="url(#mask1_25_397)">
<path d="M241.421 193.384C241.633 192.843 241.692 192.254 241.591 191.681C241.49 191.11 241.233 190.577 240.848 190.141C240.464 189.705 239.966 189.385 239.411 189.214C238.855 189.043 238.263 189.029 237.7 189.173C237.138 189.317 236.625 189.614 236.22 190.031C235.815 190.447 235.533 190.967 235.405 191.534C235.277 192.101 235.307 192.692 235.494 193.242C235.68 193.793 236.015 194.281 236.461 194.653C236.182 195.073 235.766 195.384 235.285 195.536C234.804 195.687 234.285 195.669 233.816 195.485L232.054 194.793C231.508 194.58 231.07 194.158 230.835 193.621C230.601 193.084 230.589 192.475 230.804 191.93L231.873 189.205C234.37 189.695 236.968 188.316 237.937 185.845L239.066 182.968C239.142 182.775 239.179 182.569 239.175 182.362C239.171 182.155 239.127 181.95 239.044 181.76C238.961 181.57 238.842 181.399 238.692 181.255C238.543 181.111 238.367 180.999 238.174 180.923L236.999 180.461C236.765 180.37 236.504 180.375 236.274 180.475C236.044 180.575 235.863 180.763 235.772 180.997C235.68 181.231 235.685 181.491 235.785 181.722C235.886 181.951 236.073 182.132 236.307 182.224L237.188 182.57L236.175 185.153C235.472 186.945 233.462 187.862 231.695 187.194C231.264 187.033 230.871 186.786 230.537 186.47C230.202 186.155 229.934 185.776 229.747 185.356C229.56 184.936 229.459 184.483 229.449 184.023C229.439 183.563 229.52 183.106 229.688 182.678L230.726 180.034L231.607 180.38C231.84 180.472 232.101 180.467 232.332 180.366C232.561 180.266 232.742 180.078 232.834 179.845C232.926 179.61 232.921 179.35 232.82 179.12C232.72 178.889 232.532 178.709 232.298 178.617L231.124 178.156C230.733 178.003 230.3 178.011 229.916 178.179C229.532 178.346 229.231 178.659 229.078 179.049L227.925 181.986C227.465 183.158 227.432 184.454 227.832 185.648C228.231 186.841 229.037 187.857 230.11 188.516L229.041 191.238C228.645 192.251 228.667 193.38 229.102 194.377C229.537 195.374 230.35 196.157 231.362 196.556L233.124 197.248C234.058 197.612 235.092 197.624 236.033 197.279C236.973 196.935 237.755 196.258 238.233 195.377C238.907 195.43 239.581 195.265 240.155 194.906C240.728 194.547 241.172 194.013 241.421 193.384ZM238.022 193.406C237.789 193.315 237.589 193.157 237.447 192.952C237.304 192.747 237.225 192.505 237.221 192.255C237.216 192.005 237.286 191.76 237.42 191.549C237.555 191.339 237.749 191.174 237.978 191.074C238.207 190.974 238.46 190.944 238.706 190.989C238.952 191.033 239.179 191.149 239.358 191.322C239.538 191.495 239.663 191.718 239.716 191.962C239.769 192.206 239.749 192.459 239.658 192.692C239.536 193.004 239.294 193.254 238.988 193.388C238.681 193.522 238.333 193.528 238.022 193.406Z" fill="white"/>
</g>
<path d="M195.788 83.0969C200.615 84.9906 206.062 82.6133 207.956 77.7871C209.85 72.9609 207.472 67.5133 202.646 65.6196C197.82 63.7258 192.372 66.1031 190.479 70.9293C188.585 75.7556 190.962 81.2032 195.788 83.0969Z" stroke="#0082FC" stroke-width="1.72315"/>
<path d="M202.921 74.6844L202.215 76.4837L200.076 75.6443L199.106 78.1176L197.201 77.3701L198.171 74.8968L196.032 74.0574L196.738 72.2581L198.877 73.0975L199.848 70.6243L201.753 71.3718L200.782 73.8451L202.921 74.6844Z" fill="#0082FC"/>
<mask id="mask2_25_397" style="mask-type:luminance" maskUnits="userSpaceOnUse" x="164" y="153" width="27" height="27">
<path d="M190.57 160.549L171.769 153.171L164.391 171.973L183.193 179.35L190.57 160.549Z" fill="white"/>
</mask>
<g mask="url(#mask2_25_397)">
<path d="M186.001 169.604C185.909 169.838 185.729 170.025 185.498 170.126C185.268 170.226 185.008 170.231 184.774 170.139L182.969 169.431L178.16 173.762C178.029 173.88 177.868 173.959 177.695 173.99C177.522 174.021 177.344 174.004 177.181 173.94L177.136 173.922C176.969 173.847 176.827 173.724 176.728 173.569C176.629 173.414 176.578 173.233 176.58 173.05L176.696 161.134L172.851 164.868C172.721 164.994 172.557 165.08 172.379 165.115C172.201 165.15 172.016 165.134 171.848 165.067L169.497 164.145C169.264 164.053 169.076 163.872 168.976 163.643C168.875 163.412 168.87 163.152 168.962 162.918C169.054 162.684 169.235 162.496 169.465 162.396C169.695 162.296 169.955 162.291 170.189 162.382L171.972 163.082L177.009 158.193C177.143 158.064 177.313 157.976 177.497 157.943C177.68 157.909 177.87 157.93 178.041 158.004C178.213 158.078 178.359 158.201 178.461 158.357C178.563 158.513 178.616 158.696 178.615 158.883L178.496 170.91L182.137 167.63C182.268 167.513 182.428 167.435 182.601 167.404C182.774 167.373 182.952 167.39 183.115 167.454L185.466 168.376C185.699 168.468 185.887 168.649 185.987 168.88C186.088 169.109 186.093 169.37 186.001 169.604Z" fill="white"/>
</g>
<path d="M255.168 137.846L256.583 134.241" stroke="white" stroke-width="2.58473" stroke-linecap="round" stroke-linejoin="round"/>
<path d="M254.075 133.257L252.66 136.863C252.253 137.901 251.08 138.413 250.041 138.005" stroke="white" stroke-width="2.58473" stroke-linecap="round" stroke-linejoin="round"/>
<path d="M256.311 140.465C255.272 140.058 254.761 138.884 255.168 137.846" stroke="white" stroke-width="2.58473" stroke-linecap="round" stroke-linejoin="round"/>
<path d="M255.388 142.817C254.139 142.326 253.243 141.339 252.807 140.174" stroke="white" stroke-width="2.58473" stroke-linecap="round" stroke-linejoin="round"/>
<path d="M249.118 140.356C250.368 140.846 251.695 140.731 252.807 140.173" stroke="white" stroke-width="2.58473" stroke-linecap="round" stroke-linejoin="round"/>
<path d="M252.508 144.396L252.087 145.468C251.738 146.358 251.922 147.369 252.562 148.08L253.226 148.816C254.901 150.676 257.948 150.123 258.862 147.794L260.752 142.977C261.031 142.265 261.06 141.48 260.832 140.75L260.121 138.458C259.767 137.315 258.79 136.719 257.793 136.688" stroke="white" stroke-width="2.58473" stroke-linecap="round" stroke-linejoin="round"/>
<path d="M250.156 143.473L249.736 144.545C249.386 145.435 248.564 146.051 247.611 146.137L246.624 146.226C244.131 146.45 242.273 143.973 243.187 141.642L245.076 136.826C245.356 136.115 245.869 135.519 246.533 135.138L248.612 133.942C249.65 133.345 250.771 133.573 251.523 134.228" stroke="white" stroke-width="2.58473" stroke-linecap="round" stroke-linejoin="round"/>
</g>
<defs>
<filter id="filter0_d_25_397" x="42.7903" y="18.9198" width="302.732" height="268.232" filterUnits="userSpaceOnUse" color-interpolation-filters="sRGB">
<feFlood flood-opacity="0" result="BackgroundImageFix"/>
<feColorMatrix in="SourceAlpha" type="matrix" values="0 0 0 0 0 0 0 0 0 0 0 0 0 0 0 0 0 0 127 0" result="hardAlpha"/>
<feOffset dx="9" dy="20"/>
<feGaussianBlur stdDeviation="15"/>
<feComposite in2="hardAlpha" operator="out"/>
<feColorMatrix type="matrix" values="0 0 0 0 0 0 0 0 0 0 0 0 0 0 0 0 0 0 0.25 0"/>
<feBlend mode="normal" in2="BackgroundImageFix" result="effect1_dropShadow_25_397"/>
<feBlend mode="normal" in="SourceGraphic" in2="effect1_dropShadow_25_397" result="shape"/>
</filter>
<linearGradient id="paint0_linear_25_397" x1="318.577" y1="59.891" x2="323.993" y2="49.0617" gradientUnits="userSpaceOnUse">
<stop stop-color="#721EFF"/>
<stop offset="1" stop-color="#206BFF"/>
<stop offset="1" stop-color="#206BFF"/>
</linearGradient>
<linearGradient id="paint1_linear_25_397" x1="130.896" y1="247.991" x2="139.403" y2="237.051" gradientUnits="userSpaceOnUse">
<stop stop-color="#0194FF"/>
<stop offset="1" stop-color="#01EADA"/>
</linearGradient>
<linearGradient id="paint2_linear_25_397" x1="3.1087" y1="141.345" x2="10.6436" y2="126.279" gradientUnits="userSpaceOnUse">
<stop stop-color="#0194FF"/>
<stop offset="1" stop-color="#206BFF"/>
<stop offset="1" stop-color="#206BFF"/>
</linearGradient>
<linearGradient id="paint3_linear_25_397" x1="148.188" y1="11.0801" x2="155.465" y2="1.72249" gradientUnits="userSpaceOnUse">
<stop stop-color="#0194FF"/>
<stop offset="1" stop-color="#01EADA"/>
</linearGradient>
</defs>
</svg>
