<svg width="36" height="35" viewBox="0 0 36 35" fill="none" xmlns="http://www.w3.org/2000/svg">
<path d="M9.37942 6.8421e-05C8.27587 3.06186e-05 7.38084 0.89383 7.37935 1.99737L7.37078 8.35302C7.36922 9.51264 5.813 9.89124 5.2789 8.86194C4.89046 8.11398 3.96533 7.82254 3.21884 8.21009L0.824739 9.45186C0.0767709 9.83945 -0.216739 10.764 0.171442 11.5127L1.18654 13.4688L1.46847 14.0119L7.12115 24.9049C7.26932 25.1905 7.34643 25.5075 7.34593 25.8292L7.33476 32.9969C7.33304 34.1027 8.22897 35 9.33476 35H33.9336C35.0381 35 35.9336 34.1046 35.9336 33L35.9333 2.0009C35.9333 0.896359 35.0379 0.000947366 33.9334 0.00090953L9.37942 6.8421e-05ZM2.02316 11.7695C1.73659 11.2129 1.9622 10.5295 2.52381 10.253L2.99537 10.0207C3.53901 9.75301 4.19693 9.96904 4.47605 10.5069C4.75941 11.0529 4.54644 11.7253 4.00038 12.0086L3.5338 12.2507C2.98387 12.536 2.30677 12.3203 2.02316 11.7695ZM3.49152 14.6209C3.33601 14.3188 3.45419 13.9478 3.7558 13.7913L5.2414 13.0206C5.47602 12.8989 5.76489 12.9905 5.88653 13.2251C6.07824 13.5951 5.93386 14.0505 5.56399 14.2424L4.32373 14.886C4.02077 15.0432 3.64773 14.9243 3.49152 14.6209ZM5.08201 17.7091C4.73133 17.0281 4.99771 16.1918 5.67763 15.8391C6.35891 15.4857 7.19768 15.7514 7.55119 16.4326L11.5808 24.1978C11.9378 24.8858 11.6694 25.733 10.9814 26.09C10.2919 26.4477 9.44296 26.1774 9.08732 25.4868L5.08201 17.7091ZM11.6733 27.3861C12.018 27.2073 12.4278 27.4654 12.4155 27.8535C12.4029 28.2468 11.9675 28.4774 11.6351 28.2667C11.3039 28.0567 11.3251 27.5666 11.6733 27.3861ZM34.4634 31.8846C34.4634 32.7926 33.7273 33.5287 32.8193 33.5287C31.3681 33.5287 30.6286 31.7858 31.6369 30.7422C32.6642 29.679 34.4634 30.4062 34.4634 31.8846ZM30.7749 29.519C30.3806 29.927 29.69 29.6479 29.69 29.0805V28.9322C29.69 28.5792 30.0668 28.3112 30.4195 28.3246C30.9744 28.3457 31.2322 29.0457 30.8464 29.445L30.7749 29.519ZM34.4634 25.2104C34.4634 25.6828 34.1991 26.1048 33.7727 26.31C32.94 26.7121 31.4498 27.1098 29.0781 26.702C28.6293 26.6254 28.2196 26.9711 28.2196 27.4264V31.2918C28.2196 32.5249 27.2161 33.5285 25.9816 33.5285H25.644L9.85967 33.5287C9.27732 33.5287 8.80546 33.0562 8.8063 32.4739L8.81246 28.2488C8.81249 28.227 8.84168 28.2199 8.85168 28.2392C8.85338 28.2425 8.8559 28.2453 8.85901 28.2472L12.0067 30.2433C12.2989 30.4286 12.5282 30.693 12.7222 30.9795C12.8522 31.1713 12.9836 31.3253 13.1182 31.4357C14.3377 32.4494 15.6852 31.17 16.8733 30.046C17.5229 29.4306 18.3778 28.634 18.8649 28.4894C19.0103 28.4463 19.1862 28.5139 19.2179 28.6621C19.2503 28.8216 19.1591 29.0743 18.9672 29.3583C17.9478 30.8658 18.2882 31.8921 18.8891 32.3142C19.5846 32.8008 20.7876 32.6129 21.8988 31.0838C22.0576 30.8651 22.1946 30.6902 22.3116 30.5506C22.4598 30.3739 22.721 30.4518 22.7504 30.6805C22.9099 31.9868 23.6477 32.3776 24.0726 32.4937C24.2292 32.5368 24.3884 32.5568 24.5465 32.5568C25.2715 32.5568 25.9662 32.142 26.3052 31.6954C26.3302 31.6704 26.4811 31.5151 26.6644 31.2361C26.8874 30.8966 26.7127 30.4575 26.3409 30.2942C25.9692 30.131 25.5465 30.3122 25.2898 30.6267C25.2508 30.6744 25.2207 30.7074 25.2041 30.7266C25.0289 30.9535 24.6483 31.1214 24.4619 31.0768C24.3455 31.0453 24.2494 30.8241 24.2092 30.5011C24.1475 29.9971 24.0011 28.8127 23.0951 28.5789C22.2094 28.3548 21.4269 29.2336 20.7105 30.2198C20.6495 30.3039 20.5897 30.3802 20.5317 30.4492C20.2542 30.7793 19.9435 30.5396 20.1852 30.1825C20.6344 29.5179 20.7881 28.8845 20.6417 28.2975C20.4593 27.5611 19.868 27.2294 19.7299 27.1605C18.3596 26.6091 17.033 27.8697 15.8627 28.9794C15.4405 29.3785 14.6298 30.1634 14.2116 30.2923C14.1107 30.3234 14.076 30.3345 14.0077 30.2541C13.9052 30.1333 13.8227 29.8938 13.8278 29.7354L13.9425 26.1113C13.9533 25.7694 13.8763 25.4305 13.7188 25.1269L9.0565 16.1416C8.90839 15.8562 8.83129 15.5393 8.83175 15.2177L8.84823 3.46748C8.84978 2.364 9.74475 1.47028 10.8482 1.47028H32.4637C33.5683 1.47028 34.4638 2.36573 34.4637 3.47031L34.4634 25.2104Z" fill="#4B4B4B"/>
<path d="M14.9706 13.3655C14.9707 13.3655 14.9707 13.3655 14.9707 13.3655L15.2093 13.5513C15.3427 13.6552 15.5305 13.652 15.6603 13.5437L15.8929 13.3496C15.9119 13.3336 15.9653 13.2884 16.0468 13.2177C16.6671 12.6801 17.5893 12.6755 18.2366 13.1802C18.5098 13.3938 18.8952 13.3873 19.1611 13.1646C19.6213 12.7791 21.9283 10.7787 22.214 9.22804C22.4134 8.14981 22.1708 7.12545 21.565 6.48752C21.087 5.9859 20.5764 5.44129 20.3542 4.78498C20.1618 4.21657 19.8613 3.72739 19.4589 3.36196C18.9831 2.93126 18.1396 2.45016 16.8261 2.62907C16.7101 2.6445 16.5854 2.66841 16.4553 2.70142C15.6634 2.90236 14.7862 2.91954 13.9869 2.75049C13.8556 2.72272 13.7301 2.70383 13.6137 2.69304C12.1844 2.56018 11.3243 3.16253 10.8615 3.6908C10.0418 4.62602 9.76098 6.10484 10.1107 7.64738C10.6189 9.88976 14.2474 12.8039 14.9706 13.3655C14.9706 13.3655 14.9706 13.3655 14.9706 13.3655ZM19.7464 7.29708C19.7464 7.29706 19.7464 7.29704 19.7464 7.29703C20.2489 7.2383 20.437 7.43425 20.5001 7.50024C20.7742 7.7894 20.8804 8.36254 20.7687 8.96112C20.7008 9.33254 20.3481 9.85154 19.8986 10.378C19.2449 11.1438 18.0757 11.1682 17.3936 10.4276C16.9052 9.89733 16.5464 9.39696 16.4675 9.04686C16.3326 8.45406 16.4157 7.87689 16.6785 7.5776C16.7329 7.51508 16.8881 7.33851 17.2852 7.33851C17.3275 7.33851 17.3735 7.33995 17.4224 7.34488C17.6163 7.36282 17.8934 7.46616 18.0497 7.62912C18.3471 7.94092 18.8482 7.93045 19.1328 7.60683C19.281 7.43693 19.5539 7.3229 19.7464 7.29712C19.7464 7.29711 19.7464 7.29709 19.7464 7.29708ZM11.9673 4.66044C11.9673 4.66042 11.9673 4.66039 11.9673 4.66038C12.3132 4.26616 12.825 4.10118 13.4791 4.15733C13.8458 4.1912 14.3909 4.38426 14.7203 4.72871C15.0177 5.03964 15.5177 5.02941 15.8025 4.70701C16.1178 4.34953 16.6547 4.13504 17.02 4.08613C17.6273 4.00855 18.1153 4.12781 18.4708 4.44998C18.7606 4.71297 18.9631 5.10786 19.0677 5.58505C19.1129 5.79119 18.9878 5.98197 18.7963 6.07062C18.6521 6.1374 18.4772 6.14527 18.3311 6.08254C18.0566 5.96466 17.7828 5.90069 17.557 5.87991C16.7503 5.81015 16.0489 6.06372 15.5728 6.60702C14.9922 7.269 14.7904 8.30266 15.033 9.37133C15.1366 9.82908 15.4215 10.3176 15.7836 10.7906C15.9542 11.0134 15.9107 11.3602 15.7051 11.5512C15.5144 11.7283 15.254 11.7064 15.0561 11.5374C13.6591 10.3449 11.8169 8.52317 11.5451 7.32259C11.3028 6.25334 11.4652 5.23337 11.9673 4.6605C11.9674 4.66048 11.9674 4.66045 11.9673 4.66044Z" fill="#4B4B4B"/>
<path d="M25.0698 6.52078C25.0698 6.11481 25.3989 5.78571 25.8048 5.78571H32.2153C32.6212 5.78571 32.9503 6.11481 32.9503 6.52078C32.9503 6.92675 32.6212 7.25586 32.2153 7.25586H25.8048C25.3989 7.25586 25.0698 6.92675 25.0698 6.52078Z" fill="#4B4B4B"/>
<path d="M25.0698 10.54C25.0698 10.134 25.3989 9.80493 25.8048 9.80493H30.4234C30.8293 9.80493 31.1584 10.134 31.1584 10.54C31.1584 10.946 30.8293 11.2751 30.4234 11.2751H25.8048C25.3989 11.2751 25.0698 10.946 25.0698 10.54Z" fill="#4B4B4B"/>
<path d="M13.5813 19.4705C13.5813 19.0646 13.9104 18.7355 14.3164 18.7355H31.0415C31.4475 18.7355 31.7766 19.0646 31.7766 19.4705C31.7766 19.8765 31.4475 20.2056 31.0415 20.2056H14.3164C13.9104 20.2056 13.5813 19.8765 13.5813 19.4705Z" fill="#4B4B4B"/>
<path d="M13.5813 23.7032C13.5813 23.2972 13.9104 22.9681 14.3164 22.9681H31.0415C31.4475 22.9681 31.7766 23.2972 31.7766 23.7032C31.7766 24.1091 31.4475 24.4382 31.0415 24.4382H14.3164C13.9104 24.4382 13.5813 24.1091 13.5813 23.7032Z" fill="#4B4B4B"/>
<path d="M13.5813 15.5344C13.5813 15.1284 13.9104 14.7993 14.3164 14.7993H31.0415C31.4475 14.7993 31.7766 15.1284 31.7766 15.5344C31.7766 15.9404 31.4475 16.2695 31.0415 16.2695H14.3164C13.9104 16.2695 13.5813 15.9404 13.5813 15.5344Z" fill="#4B4B4B"/>
</svg>
