<svg width="177" height="47" viewBox="0 0 177 47" fill="none" xmlns="http://www.w3.org/2000/svg">
<path d="M172.475 36.3764C168.354 39.0046 163.686 36.5498 163.45 35.6275C163.363 35.2866 163.45 35.1167 163.679 35.0393C163.817 34.993 163.966 35.0011 164.105 35.0485C165.311 35.4634 166.918 35.3652 168.6 34.7549C168.6 34.7549 168.6 34.7549 168.601 34.7549C169.363 34.4787 170.141 34.0962 170.904 33.6096C171.745 33.0734 172.492 32.4585 173.124 31.8032C174.3 30.5851 175.085 29.2283 175.351 27.9731C175.37 27.883 175.404 27.7975 175.451 27.72C175.69 27.3259 175.908 27.1583 176.175 27.3514C176.841 27.831 176.593 33.7483 172.473 36.3764H172.475Z" fill="#53F95F"/>
<path d="M118.241 27.609C118.241 28.9 117.828 29.8835 117.002 30.5585C116.176 31.2346 114.94 31.572 113.295 31.572C112.452 31.572 111.733 31.5096 111.139 31.386C110.869 31.3293 110.607 31.2611 110.352 31.1814C109.833 31.0173 109.47 30.5111 109.47 29.924V29.8743C109.47 28.9982 110.247 28.3869 111.023 28.6307C111.164 28.6746 111.308 28.7174 111.456 28.7578C112.193 28.9612 112.841 29.0618 113.4 29.0618C114.548 29.0618 115.121 28.7012 115.121 27.9812C115.121 27.7107 115.046 27.4912 114.894 27.3224C114.741 27.1537 114.479 26.9618 114.106 26.748C113.733 26.5342 113.236 26.2846 112.613 25.9991C111.721 25.5935 111.067 25.219 110.648 24.8734C110.23 24.529 109.926 24.1326 109.736 23.6854C109.546 23.2392 109.451 22.6891 109.451 22.0361C109.451 20.9174 109.85 20.0529 110.648 19.4415C111.446 18.8301 112.578 18.5239 114.043 18.5239C115.017 18.5239 115.973 18.6845 116.91 19.0058C117.578 19.2346 117.913 20.0471 117.643 20.7475L117.617 20.8145C117.37 21.4548 116.703 21.7691 116.102 21.5345C115.908 21.4594 115.72 21.3901 115.536 21.3265C115.032 21.1543 114.517 21.0676 113.992 21.0676C113.059 21.0676 112.593 21.3415 112.593 21.8893C112.593 22.1968 112.743 22.4637 113.044 22.6891C113.344 22.9145 114.003 23.2485 115.019 23.6911C115.925 24.0887 116.588 24.4608 117.009 24.8064C117.431 25.152 117.742 25.5495 117.943 25.9991C118.143 26.4498 118.243 26.9861 118.243 27.609H118.241Z" fill="white"/>
<path d="M129.753 31.3466C128.738 31.3466 127.827 30.6694 127.458 29.6408L127.456 29.635H127.373C126.841 30.3631 126.293 30.8682 125.73 31.149C125.167 31.431 124.433 31.5709 123.527 31.5709C122.414 31.5709 121.538 31.2253 120.899 30.5353C120.26 29.8442 119.94 28.8618 119.94 27.5859C119.94 26.31 120.37 25.2652 121.231 24.6307C122.091 23.9962 123.39 23.646 125.124 23.5778L126.628 23.527C126.911 23.5177 127.136 23.2658 127.136 22.9584C127.136 21.6824 126.535 21.0445 125.332 21.0445C124.517 21.0445 123.576 21.2803 122.508 21.7506C122.256 21.8616 121.968 21.7368 121.848 21.4721L121.252 20.1511C121.12 19.8587 121.241 19.5097 121.513 19.3768C122.716 18.792 124.03 18.4996 125.456 18.4996C127.011 18.4996 128.203 18.8671 129.033 19.6033C129.864 20.3395 130.278 21.4571 130.278 22.9584V30.7769C130.278 31.0912 130.043 31.3455 129.754 31.3455L129.753 31.3466ZM127.136 26.5504C127.136 25.9841 126.704 25.5299 126.182 25.5495L125.912 25.5599C124.992 25.59 124.308 25.7703 123.859 26.0996C123.41 26.4302 123.185 26.9329 123.185 27.6079C123.185 28.5764 123.697 29.0595 124.72 29.0595C125.452 29.0595 126.039 28.8306 126.477 28.373C126.916 27.9153 127.136 27.3074 127.136 26.5492V26.5504Z" fill="white"/>
<path d="M142.786 31.3467C142.169 31.3467 141.626 30.9029 141.456 30.258L141.318 29.7368H141.152C140.814 30.3227 140.333 30.7746 139.711 31.0936C139.089 31.4126 138.381 31.5721 137.586 31.5721C136.224 31.5721 135.198 31.1768 134.507 30.384C133.815 29.5923 133.47 28.4528 133.47 26.9676V20.2621C133.47 19.4323 134.09 18.7597 134.854 18.7597H135.249C136.013 18.7597 136.632 19.4323 136.632 20.2621V26.1113C136.632 27.0197 136.781 27.7004 137.078 28.1546C137.375 28.6088 137.849 28.8353 138.498 28.8353C139.382 28.8353 140.022 28.514 140.416 27.8726C140.81 27.2312 141.006 26.1667 141.006 24.6805V20.261C141.006 19.4311 141.626 18.7585 142.39 18.7585H142.785C143.549 18.7585 144.168 19.4311 144.168 20.261V29.8431C144.168 30.6729 143.549 31.3455 142.785 31.3455L142.786 31.3467ZM137.037 17.3751C136.871 17.2214 137.037 17.0711 137.037 17.0711C137.717 16.2124 138.273 15.4762 138.707 14.8602C139.232 14.1136 140.051 13.6814 140.915 13.6814H143.019V13.9172C142.659 14.3078 142.046 14.8868 141.179 15.6565C140.652 16.1246 140.194 16.5187 139.806 16.8412C139.391 17.1856 138.884 17.3739 138.362 17.3739C138.362 17.3739 137.203 17.5277 137.037 17.3739V17.3751Z" fill="white"/>
<path d="M151.156 31.5721C149.794 31.5721 148.726 30.9977 147.948 29.8489C147.17 28.7012 146.781 27.1098 146.781 25.0757C146.781 23.0416 147.177 21.404 147.968 20.2517C148.76 19.0994 149.85 18.5239 151.238 18.5239C152.696 18.5239 153.81 19.1399 154.577 20.3707H154.68C154.521 19.4323 154.442 18.5955 154.442 17.8605V15.4057C154.442 14.5355 155.091 13.8305 155.892 13.8305H156.164C156.965 13.8305 157.614 14.5355 157.614 15.4057V29.7737C157.614 30.644 156.965 31.349 156.164 31.349C155.574 31.349 155.043 30.9607 154.821 30.3678L154.577 29.7171H154.442C153.722 30.9561 152.627 31.5744 151.155 31.5744L151.156 31.5721ZM152.265 28.8364C153.074 28.8364 153.667 28.581 154.044 28.0714C154.421 27.5605 154.626 26.6937 154.661 25.471V25.0988C154.661 23.7478 154.47 22.7793 154.085 22.1945C153.702 21.6097 153.079 21.3161 152.214 21.3161C151.51 21.3161 150.962 21.6409 150.571 22.2904C150.181 22.9399 149.986 23.883 149.986 25.1219C149.986 26.3609 150.183 27.2889 150.576 27.9084C150.97 28.5279 151.533 28.8376 152.266 28.8376L152.265 28.8364Z" fill="white"/>
<path d="M166.169 31.5721C164.302 31.5721 162.844 31.0127 161.794 29.8939C160.743 28.7764 160.218 27.1919 160.218 25.1427C160.218 23.0936 160.703 21.4028 161.675 20.2505C162.645 19.0983 163.988 18.5227 165.703 18.5227C167.417 18.5227 168.616 19.0289 169.528 20.0425C170.44 21.0561 170.897 22.4557 170.897 24.2424V24.7174C170.897 25.375 170.406 25.9078 169.8 25.9078H164.815C163.963 25.9078 163.426 26.926 163.873 27.7142C163.972 27.8888 164.088 28.0482 164.219 28.1939C164.717 28.7417 165.416 29.0156 166.314 29.0156C167.012 29.0156 167.672 28.937 168.294 28.7798C168.469 28.7359 168.645 28.6839 168.823 28.625C169.53 28.3927 170.244 28.959 170.244 29.7599V29.9009C170.244 30.4071 169.946 30.852 169.509 31.0266C169.176 31.1595 168.83 31.2681 168.471 31.3513C167.842 31.4981 167.075 31.5709 166.17 31.5709L166.169 31.5721ZM165.723 20.9671C165.053 20.9671 164.527 21.1982 164.147 21.6594C164.139 21.6686 164.133 21.6767 164.126 21.686C163.523 22.4418 164.06 23.6241 164.981 23.6241H166.486C167.414 23.6241 167.956 22.4187 167.331 21.6732C167.327 21.6686 167.324 21.664 167.32 21.6594C166.926 21.1971 166.394 20.9671 165.723 20.9671Z" fill="white"/>
<path d="M1.46763 46.0442C0.88015 46.0442 0.489564 45.9252 0.293738 45.6859C0.0979127 45.4467 0 45.0226 0 44.4112V2.54955C0 1.93932 0.0979127 1.51402 0.293738 1.27478C0.489564 1.03554 0.892922 0.916504 1.50381 0.916504H14.1218C14.6103 0.916504 14.9955 1.05635 15.2776 1.33488C15.5585 1.61341 15.699 2.01907 15.699 2.54955V3.86361C15.699 5.27129 15.3989 6.35998 14.8008 7.1297C14.2016 7.90057 13.3395 8.28427 12.2146 8.28427H9.10801C8.57481 8.28427 8.14272 8.7535 8.14272 9.33252V19.1065C8.14272 19.6855 8.57481 20.1548 9.10801 20.1548H12.8745C13.363 20.1548 13.7482 20.2946 14.0303 20.5731C14.3112 20.8517 14.4517 21.2573 14.4517 21.7878V23.1423C14.4517 24.55 14.1516 25.6318 13.5535 26.3888C12.9543 27.1458 12.0922 27.5237 10.9673 27.5237H9.10801C8.57481 27.5237 8.14272 27.9929 8.14272 28.5719V43.0185C8.14272 43.4438 8.0629 43.8356 7.90432 44.1939C7.74468 44.5522 7.53715 44.8712 7.28066 45.1497C7.02417 45.4282 6.72405 45.6478 6.38242 45.8073C6.03973 45.9668 5.68532 46.0465 5.31815 46.0465H1.46763V46.0442Z" fill="#53F95F"/>
<path d="M35.5412 44.4909C35.6146 45.0757 35.5773 45.4802 35.4315 45.7056C35.2847 45.931 34.893 46.0442 34.2577 46.0442H30.3326C29.9899 46.0442 29.6419 45.9645 29.2875 45.805C28.9331 45.6455 28.6213 45.4328 28.352 45.1682C28.0828 44.9035 27.8571 44.5845 27.673 44.2124C27.49 43.8403 27.3984 43.43 27.3984 42.9781L27.2611 40.0691C27.2345 39.5121 26.811 39.0752 26.298 39.0752H25.6105C25.0932 39.0752 24.6675 39.519 24.6462 40.0807L24.5377 42.9792C24.5132 43.4311 24.4153 43.8426 24.2439 44.2136C24.0726 44.5857 23.8523 44.9047 23.5841 45.1693C23.3148 45.4352 23.0094 45.6467 22.6667 45.8061C22.324 45.9656 21.9696 46.0454 21.6035 46.0454H17.6785C17.042 46.0454 16.6515 45.9333 16.5046 45.7068C16.3577 45.4814 16.3088 45.0757 16.3577 44.4921L20.3562 2.62929C20.4051 2.01907 20.5584 1.58105 20.8149 1.31523C21.0714 1.05057 21.4811 0.916504 22.0441 0.916504H29.8569C30.4433 0.916504 30.8658 1.04941 31.1223 1.31523C31.3788 1.58105 31.5321 2.01907 31.581 2.62929L35.5422 44.4921L35.5412 44.4909ZM25.95 32.7811C26.4991 32.7811 26.9387 32.283 26.9142 31.6866L26.0053 9.44L25.8957 9.47929L24.9868 31.6866C24.9623 32.283 25.4008 32.7811 25.951 32.7811H25.95Z" fill="#53F95F"/>
<path d="M47.9388 0C49.4299 0.0265817 50.7868 0.285465 52.0107 0.776649C53.2336 1.26783 54.2787 1.92544 55.1471 2.74832C56.0145 3.5712 56.6818 4.52814 57.1458 5.61568C57.6098 6.70438 57.8429 7.86011 57.8429 9.08056V19.9144C57.8429 20.8967 57.3778 21.3879 56.4487 21.3879H52.3034C51.6914 21.3879 51.1114 21.203 50.5612 20.8308C50.011 20.4587 49.7364 19.9282 49.7364 19.2371V9.47813C49.7364 9.02739 49.5469 8.60902 49.1681 8.22301C48.7881 7.83815 48.3177 7.64514 47.7558 7.64514C47.2417 7.64514 46.8022 7.83815 46.435 8.22301C46.0678 8.60786 45.8848 9.02624 45.8848 9.47813V37.5196C45.8848 37.9715 46.0551 38.3898 46.3988 38.7747C46.7405 39.1595 47.1928 39.3525 47.7558 39.3525C48.3911 39.3525 48.8743 39.1468 49.2042 38.7354C49.5342 38.3239 49.6991 37.9183 49.6991 37.5207V28.12C49.6991 27.4301 49.9737 26.8996 50.5239 26.5274C51.0742 26.1553 51.6552 25.9692 52.2661 25.9692H56.4104C57.364 25.9692 57.8408 26.4477 57.8408 27.4035V37.9183C57.8408 39.1665 57.596 40.3418 57.1075 41.4433C56.6179 42.5458 55.9208 43.5085 55.0173 44.3314C54.1126 45.1543 53.0367 45.805 51.7893 46.2834C50.542 46.7608 49.1478 47 47.6078 47C46.0678 47 44.7652 46.7608 43.5551 46.2834C42.345 45.805 41.3052 45.1555 40.4379 44.3314C39.5694 43.5085 38.9032 42.5458 38.4392 41.4433C37.9741 40.3418 37.7421 39.1665 37.7421 37.9183V9.08171C37.7421 7.83353 37.9858 6.65931 38.4753 5.55674C38.9638 4.45533 39.6492 3.49261 40.5294 2.66858C41.4095 1.8457 42.4791 1.19502 43.7392 0.716551C44.9982 0.239236 46.3988 0 47.9388 0Z" fill="#53F95F"/>
<path d="M69.5786 44.3314C69.5786 44.9682 69.4562 45.4144 69.2115 45.6663C68.9667 45.9194 68.5633 46.0442 68.0014 46.0442H63.0132C62.4502 46.0442 62.0468 45.9183 61.8031 45.6663C61.5583 45.4144 61.4359 44.9694 61.4359 44.3314V4.0231C61.4359 3.57237 61.5147 3.16093 61.6743 2.78878C61.8329 2.41779 62.0415 2.09188 62.298 1.81335C62.5545 1.53482 62.8482 1.31523 63.1781 1.15574C63.508 0.996249 63.8571 0.916504 64.2232 0.916504H68.111C68.7464 0.916504 69.1497 1.02283 69.3211 1.23548C69.4914 1.44814 69.5776 1.85958 69.5776 2.4698V44.3326L69.5786 44.3314Z" fill="#53F95F"/>
<path d="M74.5295 46.0442C73.9665 46.0442 73.5876 45.9182 73.3929 45.6663C73.197 45.4144 73.0991 44.9833 73.0991 44.3719V2.54955C73.0991 1.93932 73.197 1.51402 73.3929 1.27478C73.5887 1.03554 73.9793 0.916504 74.5668 0.916504H78.4183C78.7855 0.916504 79.1399 0.996249 79.4826 1.15574C79.8253 1.31523 80.1244 1.53366 80.3809 1.81335C80.6373 2.09188 80.8449 2.41779 81.0045 2.78878C81.1631 3.16093 81.2429 3.55965 81.2429 3.98381V37.6294C81.2429 38.2084 81.675 38.6776 82.2082 38.6776H85.0945C86.195 38.6776 87.0389 39.0625 87.6253 39.8333C88.2117 40.6042 88.5055 41.6918 88.5055 43.0994V44.4135C88.5055 44.9451 88.3703 45.3496 88.1021 45.6282C87.8329 45.9067 87.454 46.0465 86.9655 46.0465H74.5316L74.5295 46.0442Z" fill="#53F95F"/>
<path d="M98.8098 44.3314C98.8098 44.9682 98.6874 45.4144 98.4427 45.6663C98.1979 45.9194 97.7945 46.0442 97.2326 46.0442H92.2444C91.6814 46.0442 91.278 45.9183 91.0343 45.6663C90.7895 45.4144 90.6671 44.9694 90.6671 44.3314V4.0231C90.6671 3.57237 90.7459 3.16093 90.9055 2.78878C91.0641 2.41779 91.2727 2.09188 91.5292 1.81335C91.7857 1.53482 92.0794 1.31523 92.4093 1.15574C92.7392 0.996249 93.0883 0.916504 93.4544 0.916504H97.3422C97.9776 0.916504 98.3809 1.02283 98.5523 1.23548C98.7226 1.44814 98.8088 1.85958 98.8088 2.4698V44.3326L98.8098 44.3314Z" fill="#53F95F"/>
</svg>
