<svg width="19" height="35" viewBox="0 0 19 35" fill="none" xmlns="http://www.w3.org/2000/svg">
<path d="M12.5608 17.8074H5.53094C2.48001 17.8074 0 20.2881 0 23.3396V34.1785C0 34.6303 0.369626 35 0.821372 35H17.2667C17.7185 35 18.0881 34.6303 18.0881 34.1785L18.0878 23.3396C18.0919 20.288 15.6077 17.8074 12.561 17.8074H12.5608ZM12.4745 24.5265C12.762 24.5265 12.996 24.7605 12.996 25.048C12.996 25.3356 12.762 25.5696 12.4745 25.5696C12.187 25.5696 11.953 25.3356 11.953 25.048C11.953 24.7605 12.187 24.5265 12.4745 24.5265ZM16.4493 33.3607H1.64213V23.3395C1.64213 21.4585 2.98087 19.8855 4.75858 19.5282C4.65989 20.4933 4.71337 21.676 4.76686 22.44C3.27212 22.752 2.14292 24.0827 2.14292 25.668V28.4607C2.14292 28.9125 2.51254 29.2822 2.96429 29.2822H4.1798C4.63156 29.2822 5.00117 28.9125 5.00117 28.4607C5.00117 28.0088 4.63155 27.6391 4.1798 27.6391L3.7898 27.6398V25.6683C3.7898 24.7566 4.53287 24.013 5.44469 24.013H6.04417C6.95569 24.013 7.69906 24.7563 7.69906 25.6683V27.6398H7.14892C6.69716 27.6398 6.32755 28.0095 6.32755 28.4613C6.32755 28.9132 6.69718 29.2829 7.14892 29.2829H8.52043C8.97219 29.2829 9.3418 28.9132 9.3418 28.4613V25.6686C9.3418 23.9723 8.05245 22.5718 6.40588 22.3913C6.34825 21.5739 6.30719 20.1941 6.41829 19.4505H11.7028C12.0027 20.2062 12.1463 20.9166 12.1463 21.7465C12.1463 22.149 12.1135 22.5432 12.0518 22.9253C11.0623 23.1266 10.3189 24.0013 10.3189 25.0445C10.3189 26.2396 11.288 27.2089 12.4828 27.2089C13.6776 27.2089 14.6468 26.2396 14.6468 25.0445C14.6468 24.2888 14.2568 23.6233 13.6694 23.2374C13.7516 22.7486 13.7926 22.2518 13.7926 21.7423C13.7926 20.9701 13.6939 20.2638 13.4889 19.5613C15.1889 19.9762 16.4577 21.5079 16.4577 23.3358L16.4573 33.361L16.4493 33.3607Z" fill="#4B4B4B"/>
<path d="M2.79688 6.72645C0.653313 9.28926 1.8033 14.8749 1.94275 15.5029C2.01661 15.8398 2.29167 16.09 2.62851 16.1394L6.01587 16.6199C6.89454 17.4373 7.98691 17.7864 9.0461 17.7864C10.0152 17.7864 10.9677 17.4167 11.7643 16.739L14.9547 16.6776C15.2874 16.6693 15.5828 16.4639 15.7019 16.156C18.1737 9.85988 14.5768 5.97009 14.4084 5.78993C14.2317 5.6132 14.0512 5.44506 13.8786 5.28075L14.9669 2.88644C15.1353 2.52087 15.0121 2.08971 14.6752 1.86394C8.14305 -2.51457 2.10689 2.18811 2.04577 2.233C1.75001 2.47119 1.65163 2.88197 1.81591 3.22681L3.24887 6.27841C3.08873 6.40993 2.93687 6.558 2.79742 6.72614L2.79688 6.72645ZM5.87642 11.659C5.87228 11.2731 5.85604 10.0943 6.24604 9.7042C6.29539 9.65484 6.44725 9.50294 6.93594 9.50294H6.98114C7.16993 9.4988 7.3549 9.44531 7.50262 9.32621C8.56214 8.49251 9.74457 8.25846 10.6726 8.69794C11.6252 9.1498 12.1919 10.2382 12.2205 11.6878C12.2246 11.8562 12.2205 12.0205 12.2081 12.1886C9.42815 13.014 6.90283 12.4638 5.90093 12.1683C5.88851 12.0043 5.88056 11.8358 5.87642 11.659ZM6.22948 13.9508C6.97669 14.1193 7.97858 14.2712 9.14063 14.2712C9.9496 14.2712 10.8366 14.1931 11.7646 13.996C11.5551 14.4807 11.2759 14.9118 10.9394 15.265C10.8817 15.306 10.8286 15.3595 10.7834 15.4169C10.3892 15.7783 9.80185 16.148 9.04641 16.148C7.68729 16.148 6.71401 15.372 6.22948 13.9508ZM3.59755 3.15352C4.97738 2.28289 8.85758 0.356663 13.1732 2.86598L12.5613 4.20885C10.9844 3.08763 9.51865 2.66479 8.19238 2.96853C6.54165 3.34237 5.61775 4.71386 5.22361 5.4861C5.05519 5.50266 4.89092 5.53132 4.73078 5.56412L3.59755 3.15352ZM4.05727 7.77813C4.45969 7.29761 4.98949 7.08394 5.72422 7.11292C6.08557 7.12947 6.40998 6.90339 6.52905 6.5668C6.53319 6.55024 7.16132 4.88293 8.55322 4.57087C9.78495 4.2916 11.4071 5.11699 13.23 6.94065C13.2587 6.97345 16.0756 10.0167 14.3592 15.048L13.0702 15.0722C13.415 14.415 13.6573 13.6842 13.7722 12.9036C13.7763 12.8833 13.7763 12.8626 13.7805 12.8422C13.834 12.4521 13.8667 12.0537 13.8585 11.6513C13.8174 9.55661 12.91 7.93861 11.3743 7.20746C9.9455 6.52983 8.22093 6.77629 6.71372 7.86057C6.04452 7.90165 5.49821 8.12742 5.09168 8.53406C4.31137 9.31041 4.22124 10.5587 4.23754 11.6761C4.24168 12.0662 4.27447 12.4317 4.3114 12.7807C4.3114 12.8422 4.31968 12.904 4.33178 12.9613C4.42634 13.6513 4.58233 14.2593 4.79564 14.785L3.43652 14.592C3.12516 12.8011 2.82138 9.25665 4.05727 7.77813Z" fill="#4B4B4B"/>
</svg>
